PathFileType	4	(X/Y/Z)	C:\Users\Basilio\Documents\Thesis Gigler\squatting_fais\c3dfiles\039\SLS_pre_front3\markers_experimental.trc
DataRate	CameraRate	NumFrames	NumMarkers	Units	OrigDataRate	OrigDataStartFrame	OrigNumFrames
200.000000	200.000000	4	63	mm	200.000000	1083	2166
Frame#	Time	FHD			LBHD			RBHD			C7			T10			CLAV			LSHO			LUUPA			LMUPA			LDUPA			LLEP			LMEP			LRAD			LUL			LRFIN			RSHO			RUPA1			RMUPA			RDUPA			RLEP			RMEP			RRAD			RUL			RUFIN			LASI			RASI			USACR			LSACR			RSACR			LTHI1			LTHI2			LTHI3			LTHI4			LLFC			LMFC			LTIB1			LTIB2			LTIB3			LTIB4			LLMAL			LMMAL			LHEE			LMT1			LMT2			LMT5			RTHI			RTHI2			RTHI3			RTHI4			RLFC			RMFC			RTIB1			RTIB2			RTIB3			RTIB4			RLMAL			RMMAL			RHEE			RMT1			RMT2			RMT5			*61			*62			
		X1	Y1	Z1	X2	Y2	Z2	X3	Y3	Z3	X4	Y4	Z4	X5	Y5	Z5	X6	Y6	Z6	X7	Y7	Z7	X8	Y8	Z8	X9	Y9	Z9	X10	Y10	Z10	X11	Y11	Z11	X12	Y12	Z12	X13	Y13	Z13	X14	Y14	Z14	X15	Y15	Z15	X16	Y16	Z16	X17	Y17	Z17	X18	Y18	Z18	X19	Y19	Z19	X20	Y20	Z20	X21	Y21	Z21	X22	Y22	Z22	X23	Y23	Z23	X24	Y24	Z24	X25	Y25	Z25	X26	Y26	Z26	X27	Y27	Z27	X28	Y28	Z28	X29	Y29	Z29	X30	Y30	Z30	X31	Y31	Z31	X32	Y32	Z32	X33	Y33	Z33	X34	Y34	Z34	X35	Y35	Z35	X36	Y36	Z36	X37	Y37	Z37	X38	Y38	Z38	X39	Y39	Z39	X40	Y40	Z40	X41	Y41	Z41	X42	Y42	Z42	X43	Y43	Z43	X44	Y44	Z44	X45	Y45	Z45	X46	Y46	Z46	X47	Y47	Z47	X48	Y48	Z48	X49	Y49	Z49	X50	Y50	Z50	X51	Y51	Z51	X52	Y52	Z52	X53	Y53	Z53	X54	Y54	Z54	X55	Y55	Z55	X56	Y56	Z56	X57	Y57	Z57	X58	Y58	Z58	X59	Y59	Z59	X60	Y60	Z60	X61	Y61	Z61	X62	Y62	Z62	X63	Y63	Z63	

1084	5.415	-284.2613830566407	1610.00537109375	-649.8527221679689	nan	nan	nan	-414.3381652832032	1583.744873046875	-628.2341308593751	-486.7594604492189	1416.454833984375	-710.5468139648439	-527.6789550781251	1114.811401367188	-735.8984375000001	nan	nan	nan	-414.1065063476564	1433.918090820313	-865.629577636719	-248.2249755859376	1408.961059570313	-977.7840576171877	-226.7952575683594	1442.214477539063	-946.6588134765627	-179.7981414794922	1423.018188476563	-978.8807373046877	-114.122787475586	1435.95068359375	-974.954772949219	-103.9022598266602	1365.18017578125	-942.684997558594	165.0265502929688	1484.538452148438	-900.772399902344	160.5920104980469	1490.893798828125	-976.0867919921877	244.5025939941407	1524.170532226563	-899.714050292969	-373.6965942382813	1422.774291992188	-554.4196777343751	-206.7683258056641	1371.37939453125	-458.3743896484376	-183.2015380859375	1407.248657226563	-486.1293029785157	-138.0906524658203	1373.732543945313	-462.563690185547	-76.83158111572267	1392.524291992188	-474.8215637207032	-67.81499481201173	1323.931396484375	-512.7388305664064	204.1000213623047	1457.021362304688	-565.1694946289064	208.2111816406251	1448.6953125	-489.6325683593751	289.7618408203126	1494.243041992188	-562.4577026367189	-373.1835021972657	963.0008544921877	-871.9512939453127	-360.7395019531251	932.7916259765627	-652.8005981445314	-551.7452392578126	969.754577636719	-749.4303588867189	-555.0312500000001	940.3782348632815	-779.421081542969	-550.7713623046876	934.655944824219	-721.1603393554689	-233.5363769531251	773.3037719726565	-945.773132324219	-150.2168884277344	763.2185668945314	-934.3446044921877	-130.7518768310547	803.223083496094	-917.0161743164065	-119.9047622680664	710.4083862304689	-923.9624023437502	-14.01022243499756	651.5393066406251	-915.0383911132815	11.47347736358643	648.5841064453126	-799.1889648437502	140.6654357910157	615.7432861328126	-880.4736328125002	142.9646606445313	543.0898437500001	-928.4323730468752	169.6651611328125	573.1524658203126	-907.9627685546877	232.8252563476563	526.9957885742189	-868.246765136719	344.0301513671876	391.0835266113282	-904.748962402344	348.5661315917969	393.8545837402345	-817.2541503906252	346.6558227539063	298.4176940917969	-872.466979980469	486.0656127929689	482.6890869140626	-824.4110107421877	483.7750549316407	484.6138000488282	-866.3471679687502	479.0578918457032	440.483612060547	-923.7480468750002	-269.4136352539063	684.0512695312501	-602.4423828125001	-206.3905639648438	660.9242553710939	-604.6411132812501	-180.9746551513672	681.1017456054689	-610.9014892578126	-186.0039978027344	579.1525268554689	-616.9790039062501	-159.2513122558594	464.7548828125001	-651.1538085937501	-135.7685241699219	473.0195617675782	-763.3120117187501	-201.6745300292969	274.3639831542969	-701.3349609375001	-306.5660095214844	249.8353424072266	-687.8463134765626	-268.5154724121094	224.0453491210938	-697.5653686523439	-275.9036865234376	179.3135070800782	-737.8156738281251	-375.2074890136719	120.3816909790039	-718.3588867187501	-346.4181518554688	136.5503997802735	-804.0354614257815	-452.978973388672	106.2461395263672	-769.3027343750002	-229.3084411621094	52.41584777832033	-778.3745727539065	-233.4152069091797	57.18618011474611	-731.9100952148439	-290.3172302246094	41.94916915893555	-681.2815551757814	nan	nan	nan	nan	nan	nan	
1085	5.42	-283.9794921875001	1609.38623046875	-650.0321655273439	nan	nan	nan	-413.9589843750001	1583.244018554688	-628.4224243164064	-486.3031311035157	1415.7529296875	-710.7034912109376	-527.5023193359376	1114.124877929688	-736.0128784179689	nan	nan	nan	-413.7017211914064	1433.192749023438	-865.7399902343752	-247.8944549560547	1408.250244140625	-977.9024658203127	-226.3215637207032	1441.438598632813	-946.9205322265627	-179.4656219482422	1422.314453125	-979.0283813476565	-113.9193496704102	1435.258422851563	-975.1358032226565	-103.9473495483399	1364.431396484375	-942.6781005859377	165.3330841064453	1483.70849609375	-900.874938964844	160.8775177001953	1490.135986328125	-976.3311767578127	244.9814910888672	1523.387451171875	-900.033386230469	-373.1302490234376	1422.004516601563	-554.4498291015626	-206.4361877441407	1370.838623046875	-458.5222778320314	-182.9571533203125	1406.27294921875	-486.3492126464845	-137.8065338134766	1373.071166992188	-462.598846435547	-76.5515823364258	1391.9609375	-474.7992553710939	-67.12618255615236	1323.678466796875	-512.1146240234376	204.2816467285157	1456.128540039063	-565.2532348632814	208.6622314453126	1448.079711914063	-489.611053466797	290.1195678710938	1493.578979492188	-562.5668334960939	-373.0071411132813	962.185974121094	-872.0357055664065	-360.1355285644532	932.4971313476565	-652.6033935546876	-551.5926513671876	969.047790527344	-749.5841064453126	-554.4028320312501	939.2858886718752	-779.4766235351565	-550.0465698242189	933.4899902343752	-720.9242553710939	-233.4154510498047	772.673034667969	-945.8430786132815	-150.2032012939453	762.5362548828126	-934.4591064453127	-130.5293884277344	802.6479492187502	-917.0915527343752	-119.7704010009766	709.9356079101564	-924.0367431640627	-13.87758255004883	650.8754272460939	-915.0860595703127	11.53791618347168	647.7240600585939	-799.180114746094	140.8122100830078	615.0472412109376	-880.4290161132815	142.8339996337891	542.4423828125001	-928.3052368164065	169.4732360839844	572.4837646484376	-907.9475708007815	232.8999938964844	526.2661132812501	-868.3016357421877	344.1448669433594	390.4198608398439	-904.8054199218752	348.7164916992188	393.1646728515626	-817.2996215820315	346.7781372070313	297.9080505371094	-872.578063964844	486.2159729003907	482.323944091797	-824.2933349609377	483.2114868164064	484.9512329101564	-866.6242675781252	480.1473693847657	440.8417968750001	-923.5139160156252	-269.1759643554688	683.4909667968751	-602.6760253906251	-205.9069061279297	660.3125610351564	-605.1431274414064	-180.6112060546875	680.6471557617189	-611.4531250000001	-185.3198547363282	578.6418457031251	-617.6444702148439	-158.6065216064453	464.4783630371095	-651.8464355468751	-135.3064880371094	472.7230224609376	-763.9531860351564	-201.1957092285157	274.1210937500001	-701.9594726562501	-306.1770629882813	249.8186492919922	-688.1563110351564	-268.1253356933594	223.8637847900391	-698.0911254882814	-275.7454223632813	179.2490386962891	-738.1727294921876	-375.1663208007813	120.5005111694336	-718.4979248046876	-346.4096069335938	136.4832153320313	-804.2117919921877	-452.9991760253907	106.2831344604492	-769.3471679687502	-229.3162384033204	52.37143707275392	-778.478698730469	-233.3813171386719	57.16036224365236	-731.9744262695314	-290.3337707519532	42.05876159667969	-681.3244628906251	nan	nan	nan	nan	nan	nan	
1086	5.425	-283.5672912597657	1608.79638671875	-650.1427612304689	nan	nan	nan	-413.4185485839845	1582.485473632813	-628.6333007812501	-485.9456176757814	1415.0390625	-710.7537231445314	-527.1896972656251	1113.460815429688	-736.1534423828126	nan	nan	nan	-412.9398498535157	1432.428955078125	-865.631530761719	-247.6709442138672	1407.431640625	-977.9719848632815	-225.7925415039063	1440.490234375	-947.037536621094	-179.1670227050782	1421.5166015625	-979.2261352539065	-113.5150375366211	1434.512451171875	-975.314880371094	-103.2972946166992	1363.734008789063	-942.8901367187502	165.5716552734375	1482.964111328125	-901.0755004882815	161.1390075683594	1489.415405273438	-976.605895996094	245.1829833984376	1522.773559570313	-900.2149047851565	-372.4219360351563	1420.93994140625	-554.4561157226564	-205.6849212646485	1370.498168945313	-458.2354125976564	-182.5572357177735	1405.9384765625	-486.3773803710939	-137.3582611083985	1372.549682617188	-462.5546264648439	-76.15982818603517	1391.331298828125	-474.8592224121095	-66.77748870849611	1322.646728515625	-512.3751831054689	204.7906799316407	1455.524291992188	-565.2979125976564	208.7357635498047	1447.126342773438	-489.8478088378907	290.5556335449219	1492.90234375	-562.8108520507814	-372.7481384277344	961.586364746094	-872.176696777344	-359.9901733398438	931.8757934570315	-652.7662353515626	-551.3578491210939	968.4683837890627	-749.7738647460939	-554.7843017578126	939.2803955078127	-779.6458740234377	-550.5603637695314	933.1915283203127	-721.2924194335939	-233.2693786621094	772.126892089844	-945.9511718750002	-150.0570220947266	762.0847167968751	-934.5222778320315	-130.3710174560547	802.0250244140627	-917.1497192382815	-119.7367782592774	709.2940673828126	-924.1455688476565	-13.76909828186036	650.3065795898439	-915.1679687500002	11.51120567321778	647.2257080078126	-799.1127929687502	140.9413757324219	614.4828491210939	-880.4453735351565	142.9302673339844	541.7482299804689	-928.2507324218752	169.6372375488282	571.8714599609376	-907.9868164062502	233.0661621093751	525.5984497070314	-868.204284667969	344.3879089355469	389.8163452148439	-904.8604125976565	348.7727966308594	392.4251403808595	-817.4099731445315	346.8634948730469	297.3765869140626	-872.645935058594	486.3392028808595	481.6199645996095	-824.1165771484377	483.3598632812501	484.339080810547	-866.5952758789065	480.0770568847657	439.8823852539064	-923.4852294921877	-268.7971191406251	682.8088989257814	-602.9674682617189	-206.1380004882813	658.9508666992189	-606.3319091796876	-180.2060089111328	680.1392211914064	-612.0780029296876	-184.6369934082032	578.3122558593751	-618.2974853515626	-157.9209136962891	464.1995544433595	-652.5506591796876	-134.9522857666016	472.447967529297	-764.5825195312501	-200.7300415039063	273.8941345214844	-702.5220947265626	-305.7368164062501	249.6663665771485	-688.4796142578126	-267.7137145996094	223.7265625000001	-698.5565185546876	-275.6497192382813	179.0518951416016	-738.3428955078126	-375.1040039062501	120.5714797973633	-718.5797729492189	-346.4175109863282	136.4511871337891	-804.4348754882815	-453.0047912597657	106.3149337768555	-769.4390869140627	-229.352523803711	52.3883399963379	-778.5314941406252	-233.3919830322266	57.18043136596681	-732.0472412109376	-290.3140563964844	42.1532325744629	-681.4064331054689	nan	nan	nan	nan	nan	nan	
1087	5.43	-283.2109375000001	1608.048461914063	-650.4659423828126	nan	nan	nan	-413.0174865722657	1581.675048828125	-628.8612060546876	-485.6396484375001	1414.409057617188	-710.7522583007814	-526.9304199218751	1112.849975585938	-736.1849975585939	nan	nan	nan	-412.3665771484376	1431.52490234375	-865.658874511719	-247.4091186523438	1406.550537109375	-978.1365966796877	-225.7308959960938	1439.804443359375	-947.2246093750002	-178.8254089355469	1420.872680664063	-979.361022949219	-113.2116165161133	1433.770263671875	-975.4465942382815	-102.9767456054688	1363.09423828125	-943.1170043945315	166.0888824462891	1481.934692382813	-901.2684326171877	161.4567413330078	1488.8037109375	-976.8627929687502	245.6724243164063	1521.470947265625	-900.4087524414065	-372.4130859375001	1420.66162109375	-554.5198364257814	-205.2677307128907	1369.755126953125	-458.0420532226564	-181.7945709228516	1405.22802734375	-486.1702880859376	-136.9138793945313	1371.892333984375	-462.458465576172	-75.6217727661133	1390.5166015625	-474.9090270996095	-66.33444976806642	1322.283447265625	-512.2686767578126	205.2274627685547	1454.923461914063	-565.3942871093751	209.061752319336	1446.257568359375	-489.8540954589845	290.9052734375001	1492.184448242188	-562.8002929687501	-372.7406921386719	960.984558105469	-872.3577880859377	-360.1982727050782	930.8106689453127	-653.4819335937501	-551.1896362304689	967.8840332031252	-749.8708496093751	-554.7235717773439	938.740173339844	-779.6838378906252	-550.4869995117189	932.6353759765627	-721.5299682617189	-233.1179504394532	771.4119262695315	-946.0669555664065	-149.7788848876953	761.6616210937501	-934.6014404296877	-130.346923828125	801.4732666015627	-917.2402954101565	-119.4558563232422	708.6151123046876	-924.2608032226565	-13.71055126190186	649.6695556640626	-915.2998046875002	11.60147380828858	646.6488647460939	-799.1514892578127	141.1161193847657	613.7512207031251	-880.405456542969	143.0244293212891	541.1950683593751	-928.2507934570315	169.7494201660157	571.2910766601564	-908.0180664062502	233.1424407958985	524.9073486328126	-868.1926879882815	344.4427490234376	389.1847229003907	-904.7590332031252	348.8164367675782	391.6949157714845	-817.1976318359377	347.0061035156251	296.6232299804688	-872.5989379882815	486.9750061035157	481.080780029297	-823.7296142578127	483.3547668457032	483.3059387207032	-866.5881958007815	480.2369384765626	439.144989013672	-923.3320922851565	-268.2351684570313	682.3114624023439	-603.4018554687501	-205.5906219482422	658.4874877929689	-606.9867553710939	-180.0332336425782	679.8093872070314	-612.4068603515626	-184.2020874023438	577.8842773437501	-618.6520996093751	-157.379623413086	463.9615173339845	-653.0630493164064	-134.4588775634766	472.1526489257814	-765.1551513671876	-200.2810058593751	273.5837097167969	-703.0885009765626	-305.3673095703126	249.6338958740235	-688.8070678710939	-267.5090942382813	223.7193145751954	-698.7973632812501	-275.5260314941407	178.958236694336	-738.7489013671876	-375.0791320800782	120.6726150512696	-718.6591186523439	-346.4945678710938	136.3864440917969	-804.6700439453127	-452.9526672363282	106.2717590332032	-769.5355224609377	-229.3880767822266	52.36560821533205	-778.5640258789065	-233.3351135253907	57.15478134155275	-732.1757202148439	-290.3392333984376	42.24058914184571	-681.4453735351564	nan	nan	nan	nan	nan	nan	
